<?xml version="1.0" encoding="UTF-8" standalone="no"?>
<svg
   xmlns:dc="http://purl.org/dc/elements/1.1/"
   xmlns:cc="http://creativecommons.org/ns#"
   xmlns:rdf="http://www.w3.org/1999/02/22-rdf-syntax-ns#"
   xmlns:svg="http://www.w3.org/2000/svg"
   xmlns="http://www.w3.org/2000/svg"
   xmlns:xlink="http://www.w3.org/1999/xlink"
   xmlns:sodipodi="http://sodipodi.sourceforge.net/DTD/sodipodi-0.dtd"
   xmlns:inkscape="http://www.inkscape.org/namespaces/inkscape"
   version="1.0"
   width="600pt"
   height="600pt"
   viewBox="0 0 600 600"
   preserveAspectRatio="xMidYMid"
   id="svg3"
   sodipodi:docname="my_head_launcher.svg"
   inkscape:version="1.0.2-2 (e86c870879, 2021-01-15)"
   xml:space="preserve"><metadata
     id="metadata16"><rdf:RDF><cc:Work
         rdf:about=""><dc:format>image/svg+xml</dc:format><dc:type
           rdf:resource="http://purl.org/dc/dcmitype/StillImage" /></cc:Work></rdf:RDF></metadata><defs
     id="defs3"><linearGradient
       id="linearGradient15"
       inkscape:collect="always"><stop
         style="stop-color:#c2d7d7;stop-opacity:1;"
         offset="0"
         id="stop16" /><stop
         style="stop-color:#50beff;stop-opacity:1;"
         offset="1"
         id="stop17" /></linearGradient><radialGradient
       inkscape:collect="always"
       xlink:href="#linearGradient15"
       id="radialGradient17"
       cx="300.00001"
       cy="300.00001"
       fx="300.00001"
       fy="300.00001"
       r="300.00001"
       gradientUnits="userSpaceOnUse" /><pattern
       id="EMFhbasepattern"
       patternUnits="userSpaceOnUse"
       width="6"
       height="6"
       x="0"
       y="0" /></defs><sodipodi:namedview
     id="namedview3"
     pagecolor="#ffffff"
     bordercolor="#000000"
     borderopacity="0.25"
     inkscape:showpageshadow="2"
     inkscape:pageopacity="0.0"
     inkscape:pagecheckerboard="true"
     inkscape:deskcolor="#d1d1d1"
     inkscape:document-units="pt"
     inkscape:zoom="0.59545898"
     inkscape:cx="12.595326"
     inkscape:cy="304.80689"
     inkscape:window-width="1920"
     inkscape:window-height="991"
     inkscape:window-x="-9"
     inkscape:window-y="-9"
     inkscape:window-maximized="1"
     inkscape:current-layer="svg3"
     inkscape:document-rotation="0"
     showgrid="false" /><rect
     style="fill:url(#radialGradient17);stroke:#5e5e5e;stroke-width:7.89474;stroke-linecap:round;stroke-linejoin:round;stroke-dasharray:none;stroke-opacity:0.66425991;fill-opacity:1"
     id="rect3"
     width="592.10529"
     height="592.10529"
     x="3.9473701"
     y="3.9473701"
     ry="43.945263" /><g
     transform="matrix(-0.08817622,0,0,-0.08777094,525.75959,519.37425)"
     fill="#000000"
     stroke="none"
     id="g3"><path
       d="M 2540,5109 C 2342,5089 2091,5024 1903,4944 1313,4693 905,4207 769,3594 750,3508 746,3453 741,3175 L 735,2855 511,2417 C 298,1998 288,1976 293,1933 c 2,-25 14,-57 24,-72 39,-51 65,-58 308,-83 l 230,-23 26,-373 c 32,-446 32,-445 71,-523 58,-116 172,-203 298,-227 30,-6 236,-14 458,-18 l 402,-7 V 373 c 0,-260 -20.1907,-338.381304 34.8093,-372.38130395 36,-22.00000005 1.1304,14.78597795 1106.1304,-4.21402205 C 3854.9397,-13.595326 3992,-1 4027,17 c 73,36 70,4 83,800 10,650 12,719 30,788 32,126 81,204 210,340 63,66 138,152 166,190 605,823 299,2111 -637,2679 -388,235 -872,342 -1339,295 z m 570,-178 c 710,-125 1247,-583 1466,-1247 69,-209 88,-333 88,-559 0,-221 -14,-317 -74,-496 -72,-217 -164,-369 -324,-537 -130,-137 -166,-182 -209,-262 -43,-79 -73,-165 -86,-251 -6,-35 -15,-368 -22,-739 -6,-371 -12,-676 -13,-678 -4,-3 -1226,-8.19065 -1473,-1.19065 L 2263.7023,154.21402 2270,454 v 263 l -26,24 -26,24 -456,8 c -514,9 -530,11 -604,76 -81,72 -83,83 -118,562 -17,233 -35,436 -41,451 -6,14 -23,31 -37,36 -15,6 -128,20 -252,32 -124,12 -231,24 -238,26 -10,3 55,139 207,439 l 221,436 v 296 c 0,275 2,304 25,418 154,761 778,1300 1625,1405 123,15 428,5 560,-19 z"
       id="path1"
       sodipodi:nodetypes="cccccccccccscccscccccccccccscccccccccccccccccscccsccc" /><path
       d="m 2568,4400 c -20,-15 -32,-46 -59,-149 l -34,-130 -44,-19 -45,-18 -116,68 c -72,43 -126,68 -145,68 -25,0 -54,-24 -182,-153 -135,-135 -153,-157 -153,-186 0,-22 21,-67 65,-142 36,-61 65,-115 65,-120 0,-5 -7,-26 -16,-48 l -15,-39 -131,-33 c -78,-19 -139,-40 -150,-51 -16,-16 -18,-38 -18,-242 v -225 l 25,-19 c 13,-11 64,-29 112,-41 172,-43 160,-37 179,-86 l 17,-45 -67,-111 c -96,-160 -98,-150 72,-322 144,-146 179,-172 217,-163 13,3 73,35 133,71 l 109,66 39,-18 c 22,-9 41,-18 43,-20 2,-1 18,-57 36,-125 18,-68 36,-130 40,-139 13,-33 52,-39 260,-39 257,0 243,-9 288,174 l 33,129 45,17 44,18 115,-69 c 73,-44 126,-69 145,-69 25,0 54,24 182,153 183,182 181,176 103,306 -86,142 -84,136 -63,186 l 18,44 124,31 c 68,17 132,35 142,41 33,17 41,74 37,276 -4,238 5,225 -179,273 l -125,32 -17,45 -17,45 64,109 c 36,60 67,117 71,128 10,34 -18,71 -169,220 -172,171 -155,167 -320,68 l -108,-65 -42,18 c -22,11 -44,25 -48,32 -5,7 -21,67 -37,133 -22,87 -36,125 -52,138 -19,15 -46,17 -234,17 -196,0 -214,-2 -237,-20 z m 389,-257 c 15,-64 35,-125 43,-134 24,-27 209,-101 237,-95 12,4 67,33 120,65 l 98,59 88,-86 c 48,-48 87,-90 87,-94 0,-4 -27,-53 -61,-108 -70,-117 -71,-119 -17,-247 44,-103 48,-108 106,-122 26,-7 82,-21 125,-33 l 77,-20 v -124 -123 l -37,-10 c -21,-6 -77,-20 -125,-32 -48,-11 -93,-29 -101,-38 -20,-22 -87,-193 -87,-222 0,-12 28,-69 62,-127 l 61,-104 -89,-88 -89,-89 -110,65 c -79,47 -117,64 -135,60 -47,-8 -195,-75 -211,-95 -10,-12 -30,-73 -45,-136 l -28,-115 h -126 -126 l -29,117 c -18,69 -38,126 -50,139 -21,24 -189,94 -221,94 -11,-1 -66,-30 -124,-64 l -105,-64 -87,86 c -49,48 -88,90 -88,94 0,4 27,53 61,108 52,87 60,106 56,138 -6,47 -62,181 -86,205 -10,10 -53,27 -97,38 -43,11 -96,25 -117,30 l -38,10 3,126 3,126 117,31 c 65,17 124,38 132,46 7,8 32,59 55,113 48,113 49,106 -40,254 l -52,85 89,89 89,88 110,-64 c 61,-36 118,-65 128,-65 10,0 35,9 57,20 21,11 64,29 95,41 31,11 62,30 70,42 7,12 26,69 40,127 15,57 29,108 31,112 3,4 61,8 129,8 h 123 z"
       id="path2" /><path
       d="m 2676,3699 c -188,-44 -346,-221 -378,-421 -36,-232 102,-461 329,-548 72,-28 203,-37 282,-20 260,56 438,320 392,579 -35,196 -194,367 -381,410 -54,13 -190,12 -244,0 z m 248,-169 c 141,-53 238,-206 222,-353 -12,-120 -89,-233 -195,-284 -49,-25 -67,-28 -151,-28 -84,0 -102,3 -151,28 -69,34 -132,100 -167,175 -22,46 -26,72 -27,137 0,71 4,88 33,147 39,80 111,148 185,177 71,27 179,28 251,1 z"
       id="path3" /></g></svg>
